PERFORMER "Fred Falke"
TITLE "Essential Mix (2008-07-26) (Hour 2) [TMB]"
FILE "2008-07-26 - EM - Fred Falke.mp3" MP3
  TRACK 01 AUDIO
    PERFORMER "Pink Floyd"
    TITLE "Time"
    INDEX 01 00:00:00
  TRACK 02 AUDIO
    PERFORMER "Georgio Moroder"
    TITLE "From Here To Eternity"
    INDEX 01 02:27:50
  TRACK 03 AUDIO
    PERFORMER "Police"
    TITLE "Synchronicity (Edit)"
    INDEX 01 06:17:00
  TRACK 04 AUDIO
    PERFORMER "Ladyhawke"
    TITLE "Back Of The Van (Fred Falke Beverly Ultimate Remix)"
    INDEX 01 07:01:00
  TRACK 05 AUDIO
    PERFORMER "Lykke Li"
    TITLE "I'm Good, I'm Gone (Fred Falke Remix)"
    INDEX 01 10:54:00
  TRACK 06 AUDIO
    PERFORMER "Whitest Boy Alive"
    TITLE "Golden Cage (Fred Falke Remix)"
    INDEX 01 13:27:00
  TRACK 07 AUDIO
    PERFORMER "Roxy Music"
    TITLE "Don't Stop The Dance (Edit)"
    INDEX 01 19:32:70
  TRACK 08 AUDIO
    PERFORMER "Kris Menace & Fred Falke"
    TITLE "Fairlight"
    INDEX 01 23:33:00
  TRACK 09 AUDIO
    PERFORMER "The Energies"
    TITLE "Born Again Runner (Fred Falke Remix)"
    INDEX 01 28:43:60
  TRACK 10 AUDIO
    PERFORMER "Pnau feat. Ladyhawke"
    TITLE "Embrace (Fred Falke & Miami Horror Remix)"
    INDEX 01 31:55:00
  TRACK 11 AUDIO
    PERFORMER "Armand van Helden"
    TITLE "Phunk Phenomenon"
    INDEX 01 36:13:00
  TRACK 12 AUDIO
    PERFORMER "Fred Falke"
    TITLE "Last Wave"
    INDEX 01 38:21:60
  TRACK 13 AUDIO
    PERFORMER "Fred Falke"
    TITLE "Sanctuary"
    INDEX 01 42:13:00
  TRACK 14 AUDIO
    PERFORMER "Fred Falke"
    TITLE "Ampkiller"
    INDEX 01 46:09:00
  TRACK 15 AUDIO
    PERFORMER "Metallica"
    TITLE "Blackened (Edit)"
    INDEX 01 48:09:00
  TRACK 16 AUDIO
    PERFORMER "Nerd"
    TITLE "Everyone Nose"
    INDEX 01 50:47:60